<svg width="1104" height="1104" viewBox="0 0 1104 1104" fill="none" xmlns="http://www.w3.org/2000/svg">
<circle cx="551.988" cy="551.99" r="525" fill="url(#paint0_linear_464_68)" stroke="url(#paint1_linear_464_68)" stroke-opacity="0.8" stroke-width="53.9799"/>
<g filter="url(#filter0_d_464_68)">
<path d="M183.849 439.508H251.774V686.756H183.849V439.508ZM357.623 690.831C342 690.831 327.283 689.246 313.472 686.077C299.887 682.907 289.132 679.963 281.207 677.246L292.075 624.604C300.906 626.868 310.868 629.246 321.963 631.736C333.283 634.227 344.265 635.472 354.906 635.472C361.925 635.472 367.812 634.793 372.567 633.435C377.548 631.85 381.284 629.699 383.775 626.982C386.492 624.038 387.85 620.642 387.85 616.793C387.85 612.038 385.926 607.963 382.076 604.566C378.454 601.17 373.473 598 367.133 595.057C361.02 591.887 354.227 588.717 346.755 585.547C339.51 582.151 332.151 578.415 324.68 574.34C317.434 570.264 310.755 565.396 304.642 559.736C298.528 554.075 293.547 547.283 289.698 539.358C286.075 531.433 284.264 522.037 284.264 511.169C284.264 495.093 288.34 481.508 296.491 470.414C304.868 459.093 316.302 450.489 330.793 444.602C345.51 438.489 362.378 435.432 381.397 435.432C393.624 435.432 405.511 436.678 417.058 439.168C428.605 441.432 438.794 444.376 447.624 447.998L438.115 500.641C431.775 498.376 423.511 496.225 413.322 494.188C403.133 491.924 393.284 490.791 383.775 490.791C373.812 490.791 366.114 492.263 360.68 495.207C355.472 498.15 352.869 502.226 352.869 507.433C352.869 511.961 354.793 515.924 358.642 519.32C362.491 522.49 367.472 525.547 373.586 528.49C379.925 531.433 386.718 534.603 393.963 537.999C401.209 541.169 408.454 544.792 415.699 548.868C423.171 552.717 429.964 557.471 436.077 563.132C442.417 568.792 447.398 575.585 451.021 583.509C454.87 591.434 456.794 600.83 456.794 611.698C456.794 627.774 452.832 641.812 444.907 653.812C437.209 665.586 425.888 674.756 410.945 681.322C396.228 687.662 378.454 690.831 357.623 690.831ZM484.67 439.508H552.595V531.207H625.615V439.508H693.201V686.756H625.615V589.283H552.595V686.756H484.67V439.508ZM781.071 439.508H868.015L936.96 686.756H866.317L830.317 521.358L824.883 493.169H824.204L818.77 521.358L782.769 686.756H712.127L781.071 439.508ZM800.769 583.509H848.657L859.864 635.812H789.222L800.769 583.509Z" fill="white" fill-opacity="0.65" shape-rendering="crispEdges"/>
</g>
<defs>
<filter id="filter0_d_464_68" x="181.438" y="433.616" width="767.636" height="269.923" filterUnits="userSpaceOnUse" color-interpolation-filters="sRGB">
<feFlood flood-opacity="0" result="BackgroundImageFix"/>
<feColorMatrix in="SourceAlpha" type="matrix" values="0 0 0 0 0 0 0 0 0 0 0 0 0 0 0 0 0 0 127 0" result="hardAlpha"/>
<feOffset dx="4.85181" dy="5.44604"/>
<feGaussianBlur stdDeviation="3.63069"/>
<feComposite in2="hardAlpha" operator="out"/>
<feColorMatrix type="matrix" values="0 0 0 0 0 0 0 0 0 0 0 0 0 0 0 0 0 0 0.3 0"/>
<feBlend mode="normal" in2="BackgroundImageFix" result="effect1_dropShadow_464_68"/>
<feBlend mode="normal" in="SourceGraphic" in2="effect1_dropShadow_464_68" result="shape"/>
</filter>
<linearGradient id="paint0_linear_464_68" x1="551.988" y1="26.9902" x2="551.988" y2="2078.44" gradientUnits="userSpaceOnUse">
<stop stop-color="#58C3CA"/>
<stop offset="1" stop-color="#98AD1E"/>
</linearGradient>
<linearGradient id="paint1_linear_464_68" x1="551.988" y1="26.9902" x2="551.988" y2="1076.99" gradientUnits="userSpaceOnUse">
<stop stop-color="#A5E5E2"/>
<stop offset="1" stop-color="#D3DF88"/>
</linearGradient>
</defs>
</svg>
