<svg width="33" height="35" viewBox="0 0 33 35" fill="none" xmlns="http://www.w3.org/2000/svg">
<g clip-path="url(#clip0_216_7058)">
<path fill-rule="evenodd" clip-rule="evenodd" d="M4.89952 28.8566C5.01677 29.0189 5.13798 29.1785 5.26273 29.3356C10.3246 35.7098 19.7797 36.2373 26.364 30.5128C32.9483 24.7883 34.1844 14.9658 29.1225 8.59153C28.9978 8.43443 28.8701 8.28054 28.7391 8.1302C33.2199 14.5102 31.8491 23.871 25.4842 29.4048C19.1192 34.9386 10.0732 34.6343 4.89952 28.8566ZM7.88065 7.23726C1.83172 12.4963 0.696176 21.5201 5.34641 27.376C9.99665 33.2319 18.683 33.7165 24.7319 28.4575C30.7808 23.1985 31.9164 14.1746 27.2661 8.31873C22.6159 2.46283 13.9296 1.97824 7.88065 7.23726ZM9.27009 8.98693C4.02367 13.5482 3.03837 21.3752 7.07198 26.4546C11.1053 31.5336 18.6399 31.954 23.8863 27.3926C29.1327 22.8313 30.1177 15.004 26.0844 9.92497C22.0508 4.84557 14.5165 4.42562 9.27009 8.98693Z" fill="url(#paint0_linear_216_7058)"/>
<path d="M23.8732 27.3921C18.6234 31.9564 11.096 31.5364 7.06013 26.454C3.02429 21.3716 4.00837 13.5514 9.25814 8.98706C14.5079 4.42275 22.0354 4.84276 26.0712 9.92517C30.107 15.0076 29.123 22.8278 23.8732 27.3921Z" fill="url(#paint1_linear_216_7058)"/>
<path d="M9.56398 14.7537L7.87081 14.7616L8.09581 13.4416L13.0071 13.4187L12.7821 14.7386L11.089 14.7466L10.0014 21.1262L8.47646 21.1334L9.56398 14.7537Z" fill="url(#paint2_linear_216_7058)"/>
<path d="M16.2136 21.0972L16.203 16.5581L16.1582 16.5583L14.5765 21.1049L13.0066 21.1122L13.2315 13.4177L14.734 13.4107L14.6617 15.6751L14.4622 18.2259L14.5183 18.2256L15.3663 15.6828L16.102 13.4043L17.3691 13.3984L17.3174 15.6737L17.3103 18.2126L17.3664 18.2123L18.0257 15.6594L18.7259 13.392L20.2284 13.385L17.8282 21.0897L16.2136 21.0972Z" fill="url(#paint3_linear_216_7058)"/>
<path d="M21.9541 19.7955L23.9276 19.7863L23.7101 21.0623L20.862 21.0756C20.4461 20.6232 20.1705 20.0493 20.0351 19.3539C19.8996 18.6584 19.8944 17.9441 20.0194 17.2108C20.1457 16.4701 20.409 15.7582 20.8093 15.0749C21.2096 14.3916 21.7282 13.825 22.3651 13.375L25.0226 13.3626L24.7976 14.6826L22.8241 14.6918C22.5835 14.92 22.3454 15.2875 22.1096 15.7942C21.8813 16.3008 21.7278 16.7851 21.649 17.2471C21.5703 17.7091 21.5588 18.1927 21.6146 18.698C21.6778 19.2033 21.791 19.5692 21.9541 19.7955Z" fill="url(#paint4_linear_216_7058)"/>
<path fill-rule="evenodd" clip-rule="evenodd" d="M7.11127 6.28512C13.6996 0.55704 23.1608 1.08458 28.226 7.46326C33.2909 13.8416 32.054 23.6711 25.4656 29.3992C18.8773 35.1272 9.41577 34.5993 4.3509 28.221C-0.714288 21.8423 0.522949 12.0132 7.11127 6.28512ZM8.61571 8.17969C3.10743 12.9687 2.07328 21.1869 6.30785 26.5196C10.5424 31.8523 18.4529 32.2936 23.9612 27.5046C29.4695 22.7155 30.5036 14.4974 26.2691 9.1647C22.0345 3.83201 14.124 3.39063 8.61571 8.17969Z" fill="url(#paint5_linear_216_7058)"/>
</g>
<defs>
<linearGradient id="paint0_linear_216_7058" x1="7.57165" y1="31.7436" x2="24.9306" y2="5.24722" gradientUnits="userSpaceOnUse">
<stop stop-color="#AD50FA"/>
<stop offset="1" stop-color="#00DCE1"/>
</linearGradient>
<linearGradient id="paint1_linear_216_7058" x1="24.5867" y1="6.95688" x2="6.13724" y2="30.1769" gradientUnits="userSpaceOnUse">
<stop stop-color="#00FCFF"/>
<stop offset="1" stop-color="#AD50FA"/>
</linearGradient>
<linearGradient id="paint2_linear_216_7058" x1="8.9379" y1="21.0055" x2="25.399" y2="19.3839" gradientUnits="userSpaceOnUse">
<stop offset="0.02" stop-color="#B9CCFF"/>
<stop offset="1" stop-color="#5BFFFF"/>
</linearGradient>
<linearGradient id="paint3_linear_216_7058" x1="8.9379" y1="21.0055" x2="25.399" y2="19.3839" gradientUnits="userSpaceOnUse">
<stop offset="0.02" stop-color="#B9CCFF"/>
<stop offset="1" stop-color="#5BFFFF"/>
</linearGradient>
<linearGradient id="paint4_linear_216_7058" x1="8.9379" y1="21.0055" x2="25.399" y2="19.3839" gradientUnits="userSpaceOnUse">
<stop offset="0.02" stop-color="#B9CCFF"/>
<stop offset="1" stop-color="#5BFFFF"/>
</linearGradient>
<linearGradient id="paint5_linear_216_7058" x1="7.99164" y1="31.1009" x2="26.7207" y2="6.14525" gradientUnits="userSpaceOnUse">
<stop stop-color="#A2AAFF"/>
<stop offset="1" stop-color="#25FEFF"/>
</linearGradient>
<clipPath id="clip0_216_7058">
<rect width="33" height="35" fill="white"/>
</clipPath>
</defs>
</svg>
